<svg width="24" height="20" viewBox="0 0 24 20" fill="none" xmlns="http://www.w3.org/2000/svg">
<path d="M8.41075 18.8828C16.713 18.8828 21.2546 11.9559 21.2546 5.9595C21.2546 5.76567 21.2546 5.56906 21.2464 5.37522C22.1306 4.7307 22.8937 3.93274 23.5 3.01874C22.6741 3.38543 21.7988 3.62711 20.9026 3.73593C21.8466 3.16776 22.5536 2.27381 22.8923 1.22022C22.0054 1.74928 21.0346 2.12068 20.0226 2.31816C19.3423 1.58854 18.4419 1.10518 17.4611 0.942972C16.4803 0.780758 15.4737 0.948737 14.5973 1.42089C13.7209 1.89304 13.0236 2.64301 12.6134 3.55464C12.2031 4.46626 12.1029 5.48866 12.3281 6.46348C10.5334 6.37286 8.77762 5.90338 7.17468 5.0855C5.57175 4.26762 4.15744 3.11959 3.0235 1.71588C2.44784 2.71702 2.27216 3.90124 2.53214 5.02807C2.79211 6.1549 3.46825 7.13986 4.42325 7.78294C3.70762 7.75846 3.00772 7.56496 2.38 7.21805V7.28035C2.38123 8.32912 2.74205 9.34529 3.40145 10.1571C4.06086 10.9689 4.9784 11.5266 5.999 11.7358C5.61161 11.8433 5.21144 11.8968 4.80963 11.895C4.52635 11.8959 4.24365 11.8695 3.96537 11.8161C4.25383 12.7189 4.8155 13.5083 5.57171 14.0736C6.32793 14.6389 7.24081 14.9519 8.1825 14.9687C6.58276 16.2339 4.60668 16.9201 2.5725 16.9168C2.21407 16.9183 1.85588 16.8975 1.5 16.8545C3.56458 18.1798 5.96228 18.8836 8.41075 18.8828Z" fill="#4FD574"/>
</svg>
