<svg width="23" height="23" viewBox="0 0 23 23" fill="none" xmlns="http://www.w3.org/2000/svg">
<path d="M6.24502 13.7261L4.81711 19.9092C4.7729 20.0964 4.78617 20.2926 4.8552 20.4722C4.92423 20.6518 5.04581 20.8064 5.20406 20.9158C5.3623 21.0252 5.54986 21.0843 5.74224 21.0854C5.93461 21.0866 6.12286 21.0297 6.2824 20.9222L11.5005 17.4434L16.7186 20.9222C16.8819 21.0305 17.0744 21.0863 17.2703 21.082C17.4662 21.0777 17.656 21.0136 17.8144 20.8981C17.9727 20.7827 18.0919 20.6215 18.1559 20.4364C18.2199 20.2512 18.2257 20.0508 18.1724 19.8622L16.4196 13.7289L20.7666 9.81702C20.9058 9.69166 21.0053 9.52824 21.0526 9.34697C21.0999 9.1657 21.0931 8.97454 21.0329 8.79711C20.9728 8.61969 20.8619 8.46379 20.7141 8.34869C20.5663 8.2336 20.388 8.16435 20.2012 8.14953L14.7378 7.71445L12.3736 2.481C12.2982 2.31248 12.1756 2.16938 12.0207 2.06897C11.8658 1.96857 11.6851 1.91514 11.5005 1.91514C11.3159 1.91514 11.1352 1.96857 10.9803 2.06897C10.8254 2.16938 10.7029 2.31248 10.6275 2.481L8.26327 7.71445L2.79982 8.14857C2.61626 8.16311 2.44077 8.23023 2.29436 8.34189C2.14794 8.45356 2.03679 8.60504 1.97422 8.77822C1.91164 8.9514 1.90028 9.13894 1.94149 9.31841C1.98271 9.49787 2.07475 9.66167 2.20662 9.79019L6.24502 13.7261ZM8.97914 9.58032C9.1502 9.56684 9.31448 9.50759 9.45476 9.40879C9.59505 9.30998 9.70617 9.17526 9.77647 9.01873L11.5005 5.20362L13.2245 9.01873C13.2949 9.17526 13.406 9.30998 13.5463 9.40879C13.6865 9.50759 13.8508 9.56684 14.0219 9.58032L17.8284 9.88219L14.6937 12.7035C14.4215 12.9488 14.3132 13.3264 14.4129 13.6791L15.6137 17.8814L12.0333 15.4942C11.8762 15.3887 11.6912 15.3324 11.5019 15.3324C11.3127 15.3324 11.1277 15.3887 10.9706 15.4942L7.22923 17.9887L8.23548 13.6321C8.27237 13.4719 8.26742 13.3049 8.2211 13.1471C8.17478 12.9894 8.08864 12.8462 7.97098 12.7313L5.05957 9.89273L8.97914 9.58032Z" fill="#F3CD03"/>
</svg>
