<svg width="23" height="23" viewBox="0 0 23 23" fill="none" xmlns="http://www.w3.org/2000/svg">
<path d="M21.0315 8.79688C20.9713 8.61946 20.8604 8.46356 20.7126 8.34844C20.5647 8.23331 20.3864 8.164 20.1997 8.14905L14.7362 7.71492L12.372 2.48148C12.2967 2.31292 12.1743 2.16975 12.0194 2.06926C11.8645 1.96877 11.6839 1.91524 11.4993 1.91514C11.3147 1.91504 11.134 1.96836 10.979 2.06869C10.824 2.16901 10.7014 2.31204 10.6259 2.48052L8.26174 7.71492L2.79829 8.14905C2.61473 8.16359 2.43924 8.23071 2.29283 8.34237C2.14641 8.45404 2.03526 8.60552 1.97269 8.7787C1.91011 8.95188 1.89875 9.13942 1.93996 9.31889C1.98118 9.49835 2.07322 9.66215 2.20509 9.79067L6.24254 13.7265L4.81462 19.9097C4.77127 20.0968 4.78516 20.2927 4.85451 20.4719C4.92386 20.6511 5.04545 20.8052 5.20352 20.9144C5.36158 21.0236 5.54882 21.0828 5.74093 21.0843C5.93304 21.0857 6.12116 21.0294 6.28087 20.9226L11.499 17.4439L16.7171 20.9226C16.8803 21.031 17.0728 21.0868 17.2687 21.0825C17.4646 21.0782 17.6545 21.014 17.8128 20.8986C17.9712 20.7832 18.0904 20.622 18.1544 20.4368C18.2184 20.2516 18.2241 20.0513 18.1709 19.8627L16.4181 13.7294L20.7651 9.8175C21.0497 9.56067 21.1542 9.16009 21.0315 8.79688Z" fill="#F3CD03"/>
</svg>
